<svg width="319" height="339" viewBox="0 0 319 339" fill="none" xmlns="http://www.w3.org/2000/svg">
<g clip-path="url(#clip0_14822_11254)">
<path d="M152.09 59.9006C168.638 59.9006 182.052 46.4914 182.052 29.9503C182.052 13.4092 168.638 0 152.09 0C135.543 0 122.129 13.4092 122.129 29.9503C122.129 46.4914 135.543 59.9006 152.09 59.9006Z" fill="#191975"/>
<path d="M205.247 280.518C221.794 280.518 235.208 267.109 235.208 250.567C235.208 234.026 221.794 220.617 205.247 220.617C188.699 220.617 175.285 234.026 175.285 250.567C175.285 267.109 188.699 280.518 205.247 280.518Z" fill="#EF151E"/>
<path d="M241.719 77.186C230.035 65.5057 211.096 65.5057 199.425 77.186L115.592 160.987C103.907 172.668 103.907 191.599 115.592 203.266C127.276 214.947 146.215 214.947 157.886 203.266L241.719 119.465C253.404 107.784 253.404 88.8529 241.719 77.186Z" fill="#006ECD"/>
<path d="M310.233 145.686C298.548 134.006 279.609 134.006 267.938 145.686L242.65 170.964C230.966 182.645 230.966 201.576 242.65 213.243C254.335 224.923 273.274 224.923 284.945 213.243L310.233 187.965C321.917 176.284 321.917 157.353 310.233 145.686Z" fill="#FF9700"/>
<path d="M146.781 339.002C154.441 339.002 162.086 336.085 167.935 330.251C179.62 318.571 179.62 299.639 167.935 287.973L83.3055 203.375L66.339 186.387C61.1788 181.229 56.64 175.544 52.8442 168.955C40.1868 146.998 39.3628 121.477 48.3729 99.7639C52.2228 90.4871 57.8558 81.9125 65.1368 74.5938C55.2892 84.4376 25.3276 114.388 25.3276 114.388L22.9907 116.737C18.4789 121.194 14.629 126.176 11.414 131.483C-2.91834 155.127 -4.28268 185.658 10.509 211.301C14.0347 217.418 18.2628 222.887 23.0312 227.64L125.668 330.238C131.503 336.071 139.163 339.002 146.808 339.002H146.781Z" fill="#191975"/>
<path d="M48.3742 99.7607C39.3642 121.487 40.2017 147.009 52.8455 168.952C53.1427 169.465 53.4534 169.978 53.7641 170.491L114.727 109.551C126.399 97.8837 126.399 78.9521 114.727 67.2853C103.056 55.6184 84.1174 55.6184 72.4461 67.2853L64.949 74.7796C57.7761 82.0579 52.1971 90.565 48.3877 99.7472L48.3742 99.7607Z" fill="#CBCBCB"/>
</g>
<defs>
<clipPath id="clip0_14822_11254">
<rect width="319" height="339" fill="white"/>
</clipPath>
</defs>
</svg>
