<svg width="683" height="208" viewBox="0 0 683 208" fill="none" xmlns="http://www.w3.org/2000/svg">
<path d="M222.963 70.1794C197.21 60.3552 171.2 61.393 164.612 72.9111C158.025 84.4296 167.648 112.01 185.947 134.837C204.244 157.663 230.133 156.902 244.406 131.987C258.447 107.151 248.648 79.9904 222.963 70.1794Z" fill="#FF9700"/>
<path d="M92.0027 78.139C114.855 93.2559 140.445 97.8397 149.513 88.0287C158.581 78.2178 155.504 49.2579 142.885 23.0822C130.266 -3.09342 104.933 -7.91349 85.2664 13.2975C65.8838 34.4823 69.2182 63.0615 92.0434 78.139" fill="#006ECD"/>
<path d="M173.897 157.729C170.238 131.146 156.643 109.634 143.048 109.66C129.454 109.686 109.272 131.252 97.6014 157.848C85.9312 184.443 99.2009 205.983 128.6 205.943C157.998 205.904 177.544 184.246 173.897 157.729Z" fill="#EF151E"/>
<path d="M69.597 88.6196C64.9344 88.6196 61.8033 91.4039 61.8033 95.5542V99.7176H72.9177C72.9177 99.7176 73.2972 135.113 72.9177 138.817C72.5381 142.521 71.5624 148.562 64.6768 151.727C58.7809 154.459 58.6589 156.981 58.2794 159.332C57.7912 162.313 58.3607 162.694 60.597 162.156C69.3937 160.067 78.7596 156.653 83.4899 148.234C86.0651 143.65 87.0954 138.699 87.0954 131.16V99.6388C91.7851 99.6388 95.2277 96.6837 95.2277 92.7042V88.5408L69.597 88.6196Z" fill="black"/>
<path d="M57.2933 136.336C54.1895 140.177 50.2255 143.284 45.7008 145.423C41.1761 147.561 36.2088 148.676 31.1745 148.681C13.3779 148.681 0 135.482 0 117.975C0 100.244 13.405 86.8606 31.1745 86.8606C36.1688 86.8994 41.0896 88.0282 45.5714 90.1634C50.0535 92.2985 53.9814 95.3848 57.0627 99.1934C57.0627 99.1934 52.3324 104.118 47.7781 104.118C45.6706 103.968 43.6541 103.224 41.9772 101.978C38.8133 99.7969 35.0161 98.6469 31.1338 98.6942C21.0089 98.6942 12.7815 107.336 12.7815 117.975C12.7815 128.39 21.0089 136.861 31.1338 136.861C35.1514 137.015 39.1141 135.914 42.438 133.722C44.1413 132.492 46.1851 131.784 48.307 131.686C53.4711 131.686 57.2933 136.336 57.2933 136.336Z" fill="black"/>
<path d="M484.247 127.036C481.746 130.13 478.549 132.632 474.903 134.355C471.257 136.077 467.253 136.974 463.198 136.979C448.858 136.979 438.057 126.34 438.057 112.235C438.057 98.1287 448.897 87.1621 463.198 87.1621C467.221 87.1952 471.189 88.106 474.799 89.8273C478.409 91.5484 481.573 94.0359 484.058 97.1045C484.058 97.1045 480.25 101.045 476.575 101.045C474.874 100.925 473.247 100.322 471.901 99.3109C469.354 97.5766 466.31 96.6583 463.198 96.6841C455.067 96.6841 448.425 103.658 448.425 112.221C448.425 120.785 455.05 127.43 463.198 127.43C466.434 127.555 469.627 126.672 472.307 124.909C473.68 123.921 475.326 123.35 477.036 123.267C481.157 123.28 484.247 127.036 484.247 127.036Z" fill="black"/>
<path d="M645.386 127.036C642.882 130.13 639.688 132.632 636.042 134.355C632.396 136.077 628.392 136.974 624.337 136.979C610.01 136.979 599.206 126.34 599.206 112.235C599.206 98.1287 610.049 87.1621 624.337 87.1621C628.363 87.1933 632.331 88.1032 635.944 89.8245C639.558 91.5459 642.726 94.034 645.21 97.1045C645.21 97.1045 641.386 101.045 637.714 101.045C636.016 100.925 634.396 100.322 633.05 99.3109C630.5 97.5741 627.452 96.6554 624.337 96.6841C616.203 96.6841 609.561 103.658 609.561 112.221C609.561 120.785 616.19 127.43 624.337 127.43C627.576 127.553 630.773 126.669 633.456 124.909C634.826 123.919 636.468 123.348 638.176 123.267C642.309 123.28 645.386 127.036 645.386 127.036Z" fill="black"/>
<path d="M411.062 101.386C410.155 98.5353 412.688 96.1319 415.902 96.1319C417.895 96.3091 419.788 97.0692 421.323 98.3122C425.701 101.031 431.503 98.3121 432.342 97.8523C432.274 96.1581 427.87 87.1221 415.889 87.1221C407.432 87.1221 398.267 91.6927 398.267 100.571C398.267 107.283 404.6 110.92 409.355 113.088C414.464 115.426 420.065 115.57 422.097 119.51C424.319 123.818 420.172 129.111 413.856 127.929C411.42 127.348 409.312 125.868 407.985 123.805C406.115 121.336 403.406 120.784 400.898 120.574C399.441 120.462 397.978 120.511 396.534 120.718C396.735 126.839 401.848 136.938 415.794 136.938C424.768 136.938 434.619 131.133 434.769 122.492C434.918 106.849 413.043 107.703 411.062 101.386Z" fill="black"/>
<path d="M585.363 88.2131C582.976 88.2131 581.581 90.5509 581.581 92.8364V114.756L560.138 88.2131H555.354C554.147 88.2903 553.018 88.8126 552.195 89.6723C551.373 90.5323 550.924 91.6644 550.937 92.8364V135.928H558.606C559.809 135.842 560.935 135.317 561.754 134.459C562.574 133.601 563.029 132.474 563.026 131.305V108.571L585.269 135.928H589.334C590.541 135.851 591.673 135.329 592.493 134.469C593.315 133.609 593.767 132.477 593.754 131.305V88.2131H585.363Z" fill="black"/>
<path d="M495.972 88.2131C494.713 88.2431 493.516 88.7394 492.625 89.5995C491.737 90.4598 491.22 91.6184 491.184 92.8364V135.928H498.518C499.774 135.898 500.97 135.401 501.858 134.541C502.746 133.68 503.257 132.522 503.289 131.305V88.2131H495.972Z" fill="black"/>
<path d="M538.119 97.6825C539.381 97.6689 540.588 97.1776 541.479 96.3135C542.37 95.4493 542.878 94.2814 542.891 93.0595V88.2131H516.475C515.219 88.2431 514.023 88.7398 513.135 89.6004C512.247 90.4611 511.736 91.6196 511.704 92.8364V135.928H538.119C539.391 135.897 540.598 135.39 541.489 134.512C542.377 133.635 542.881 132.457 542.891 131.226V126.419H528.252C524.404 126.419 523.754 128.245 523.754 128.245V116.608H536.981C538.243 116.595 539.45 116.103 540.341 115.239C541.232 114.375 541.739 113.207 541.752 111.985V107.152H528.2C524.349 107.152 523.698 108.978 523.698 108.978V97.7351L538.119 97.6825Z" fill="black"/>
<path d="M677.53 97.6825C678.792 97.6689 679.995 97.1776 680.886 96.3135C681.781 95.4493 682.288 94.2814 682.301 93.0595V88.2131H655.869C654.614 88.2431 653.42 88.7398 652.532 89.6004C651.644 90.4611 651.13 91.6196 651.098 92.8364V135.928H677.53C678.798 135.897 680.005 135.39 680.896 134.512C681.787 133.635 682.291 132.457 682.301 131.226V126.419H667.662C663.798 126.419 663.161 128.245 663.161 128.245V116.608H676.378C677.637 116.595 678.844 116.103 679.735 115.239C680.626 114.375 681.133 113.207 681.15 111.985V107.152H667.594C663.73 107.152 663.096 108.978 663.096 108.978V97.7351L677.53 97.6825Z" fill="black"/>
<path d="M326.191 88.5933C324.954 88.6267 323.779 89.118 322.907 89.9658C322.034 90.8138 321.531 91.9537 321.5 93.1507V135.546H328.683C329.918 135.513 331.093 135.022 331.967 134.174C332.839 133.326 333.343 132.186 333.372 130.989V88.5933H326.191Z" fill="black"/>
<path d="M367.727 87.1621C364.367 87.181 361.044 87.8419 357.947 89.1066C354.851 90.3713 352.041 92.2156 349.68 94.5332C347.322 96.8508 345.455 99.597 344.19 102.614C342.928 105.631 342.29 108.86 342.313 112.116C342.29 115.373 342.928 118.602 344.19 121.619C345.455 124.636 347.322 127.382 349.68 129.699C352.041 132.017 354.851 133.861 357.947 135.126C361.044 136.391 364.367 137.052 367.727 137.07C371.087 137.052 374.411 136.391 377.507 135.126C380.603 133.861 383.41 132.017 385.768 129.699C388.129 127.381 389.993 124.635 391.255 121.618C392.52 118.601 393.154 115.372 393.128 112.116C393.154 108.861 392.52 105.632 391.255 102.615C389.993 99.598 388.129 96.8518 385.768 94.5341C383.41 92.2162 380.603 90.3719 377.507 89.1069C374.411 87.8419 371.087 87.181 367.727 87.1621ZM367.727 126.761C359.772 126.761 353.332 120.194 353.332 112.064C353.235 108.268 354.695 104.589 357.394 101.836C360.094 99.0824 363.811 97.4799 367.727 97.3803C375.669 97.3803 382.122 103.947 382.122 112.064C382.122 120.181 375.669 126.761 367.727 126.761Z" fill="black"/>
<path d="M303.245 116.175C306.972 113.338 309.683 109.608 309.683 104.906C309.683 95.4104 301.889 88.6069 292.28 88.6069H272.626C271.091 88.6435 269.629 89.2498 268.542 90.3009C267.455 91.3516 266.825 92.7669 266.784 94.2544V147H295.031C306.308 147 313.099 138.555 313.099 130.661C313.176 127.561 312.274 124.512 310.513 121.923C308.752 119.334 306.216 117.328 303.245 116.175ZM279.756 99.5607H291.222C292.07 99.5273 292.915 99.6584 293.709 99.9464C294.503 100.234 295.23 100.673 295.846 101.238C296.462 101.802 296.956 102.48 297.298 103.232C297.64 103.983 297.823 104.794 297.837 105.615C297.816 107.309 297.112 108.927 295.876 110.125C294.64 111.322 292.97 112.004 291.222 112.025H285.259C280.542 112.025 279.756 114.31 279.756 114.31V99.5607ZM293.31 136.085H285.57C280.596 136.085 279.769 138.371 279.769 138.371V122.834H293.323C296.847 122.834 300.886 125.329 300.886 129.072C300.859 134.142 296.766 136.046 293.296 136.046L293.31 136.085Z" fill="black"/>
</svg>
