<svg width="20" height="20" viewBox="0 0 20 20" fill="none" xmlns="http://www.w3.org/2000/svg">
<g clip-path="url(#clip0_14630_163607)">
<path d="M10 0C4.4776 0 0 4.4776 0 10C0 15.5224 4.4776 20 10 20C15.5224 20 20 15.5224 20 10C20 4.4776 15.5224 0 10 0ZM12.1797 9.99948H10.7802V15.0771H8.68177V10H7.63385V8.25H8.68177V7.19948C8.68177 5.77187 9.27344 4.92344 10.9552 4.92344H12.3552V6.67344H11.4802C10.8255 6.67344 10.7818 6.91823 10.7818 7.37396L10.7802 8.25H12.3651L12.1792 9.99948H12.1797Z" fill="#ADB5BD"/>
</g>
<defs>
<clipPath id="clip0_14630_163607">
<rect width="20" height="20" fill="white"/>
</clipPath>
</defs>
</svg>
