<svg width="20" height="20" viewBox="0 0 20 20" fill="none" xmlns="http://www.w3.org/2000/svg">
<g clip-path="url(#clip0_14630_163609)">
<mask id="mask0_14630_163609" style="mask-type:luminance" maskUnits="userSpaceOnUse" x="0" y="0" width="20" height="20">
<path d="M19.9995 0H0V19.9995H19.9995V0Z" fill="white"/>
</mask>
<g mask="url(#mask0_14630_163609)">
<path d="M10.0003 0C5.95565 0 2.30939 2.43639 0.761511 6.17276C-0.786365 9.90964 0.0693414 14.2106 2.92916 17.0709C5.78898 19.9307 10.0904 20.7864 13.8268 19.2386C17.5632 17.6907 19.9996 14.0444 19.9996 9.99974C20.0001 4.47697 15.5226 0 10.0003 0ZM7.0926 15.2626H4.91088V8.2352H7.0926V15.2626ZM6.00044 7.27637C5.48743 7.27846 5.02286 6.97117 4.82443 6.49775C4.62599 6.02432 4.73224 5.47798 5.09317 5.11289C5.45462 4.74831 5.99992 4.63686 6.47542 4.83112C6.95093 5.02539 7.26238 5.48684 7.26499 5.99984C7.26655 6.70087 6.70146 7.27116 6.00044 7.27637ZM15.2632 15.2626H13.0831V11.8419C13.0831 11.0263 13.0674 9.97995 11.9487 9.97995C10.83 9.97995 10.6331 10.8669 10.6331 11.7825V15.2626H8.46079V8.2352H10.5545V9.19351H10.5847C10.8753 8.64092 11.5873 8.0576 12.6492 8.0576C14.857 8.0576 15.2637 9.51277 15.2637 11.4023V15.2626H15.2632Z" fill="#ADB5BD"/>
</g>
</g>
<defs>
<clipPath id="clip0_14630_163609">
<rect width="20" height="20" fill="white"/>
</clipPath>
</defs>
</svg>
