<svg width="20" height="20" viewBox="0 0 20 20" fill="none" xmlns="http://www.w3.org/2000/svg">
<g clip-path="url(#clip0_14985_254249)">
<path d="M10 0C4.47723 0 0 4.47723 0 10C0 15.5228 4.47723 20 10 20C15.5228 20 20 15.5228 20 10C20 4.47723 15.5228 0 10 0ZM12.5851 16.0342C12.2235 15.544 11.8635 15.0541 11.502 14.5639C10.7154 13.4956 9.92892 12.426 9.14112 11.3575C8.13777 12.4258 7.13416 13.4954 6.13081 14.5639C5.67133 15.0541 5.21184 15.544 4.75134 16.0342H3.54087C4.00036 15.544 4.45984 15.0541 4.92035 14.5639C5.55857 13.8827 6.19832 13.2016 6.83653 12.5201C7.42693 11.8904 8.01759 11.2619 8.60825 10.6321C8.01657 9.82843 7.42463 9.02452 6.83168 8.22087C5.78793 6.80202 4.74392 5.38444 3.69992 3.96584H7.4075C8.51134 5.43865 9.61543 6.90992 10.7193 8.38145C12.1 6.90992 13.4808 5.43737 14.8618 3.96584H16.0784C14.4721 5.67747 12.8658 7.38909 11.2596 9.10072C12.6245 10.9226 13.9906 12.7434 15.3566 14.5639C15.723 15.0541 16.0904 15.544 16.4591 16.0342H12.5851Z" fill="#ADB5BD"/>
</g>
<defs>
<clipPath id="clip0_14985_254249">
<rect width="20" height="20" fill="white"/>
</clipPath>
</defs>
</svg>
